<?xml version="1.0" encoding="UTF-8" standalone="no"?>
<!DOCTYPE svg PUBLIC "-//W3C//DTD SVG 1.1//EN"
 "http://www.w3.org/Graphics/SVG/1.1/DTD/svg11.dtd">
<!-- Generated by graphviz version 2.40.1 (20161225.0304)
 -->
<!-- Title: snakemake_dag Pages: 1 -->
<svg width="1635pt" height="260pt"
 viewBox="0.00 0.00 1635.00 260.00" xmlns="http://www.w3.org/2000/svg" xmlns:xlink="http://www.w3.org/1999/xlink">
<g id="graph0" class="graph" transform="scale(1 1) rotate(0) translate(4 256)">
<title>snakemake_dag</title>
<polygon fill="#ffffff" stroke="transparent" points="-4,4 -4,-256 1631,-256 1631,4 -4,4"/>
<!-- 0 -->
<g id="node1" class="node">
<title>0</title>
<path fill="none" stroke="#56d8d8" stroke-width="2" d="M634.5,-36C634.5,-36 604.5,-36 604.5,-36 598.5,-36 592.5,-30 592.5,-24 592.5,-24 592.5,-12 592.5,-12 592.5,-6 598.5,0 604.5,0 604.5,0 634.5,0 634.5,0 640.5,0 646.5,-6 646.5,-12 646.5,-12 646.5,-24 646.5,-24 646.5,-30 640.5,-36 634.5,-36"/>
<text text-anchor="middle" x="619.5" y="-15.5" font-family="sans" font-size="10.00" fill="#000000">all</text>
</g>
<!-- 1 -->
<g id="node2" class="node">
<title>1</title>
<path fill="none" stroke="#afd856" stroke-width="2" d="M87,-252C87,-252 12,-252 12,-252 6,-252 0,-246 0,-240 0,-240 0,-228 0,-228 0,-222 6,-216 12,-216 12,-216 87,-216 87,-216 93,-216 99,-222 99,-228 99,-228 99,-240 99,-240 99,-246 93,-252 87,-252"/>
<text text-anchor="middle" x="49.5" y="-237" font-family="sans" font-size="10.00" fill="#000000">gridss</text>
<text text-anchor="middle" x="49.5" y="-226" font-family="sans" font-size="10.00" fill="#000000">comb: nc1t_nc1n</text>
</g>
<!-- 1&#45;&gt;0 -->
<g id="edge1" class="edge">
<title>1&#45;&gt;0</title>
<path fill="none" stroke="#c0c0c0" stroke-width="2" d="M55.8042,-215.8533C68.8802,-181.2287 102.4964,-106.149 158.5,-72 229.4563,-28.7333 485.3526,-20.1323 582.0993,-18.4234"/>
<polygon fill="#c0c0c0" stroke="#c0c0c0" stroke-width="2" points="582.3484,-21.9199 592.2905,-18.2588 582.2352,-14.9208 582.3484,-21.9199"/>
</g>
<!-- 20 -->
<g id="node21" class="node">
<title>20</title>
<path fill="none" stroke="#56d8c1" stroke-width="2" d="M305.5,-180C305.5,-180 273.5,-180 273.5,-180 267.5,-180 261.5,-174 261.5,-168 261.5,-168 261.5,-156 261.5,-156 261.5,-150 267.5,-144 273.5,-144 273.5,-144 305.5,-144 305.5,-144 311.5,-144 317.5,-150 317.5,-156 317.5,-156 317.5,-168 317.5,-168 317.5,-174 311.5,-180 305.5,-180"/>
<text text-anchor="middle" x="289.5" y="-159.5" font-family="sans" font-size="10.00" fill="#000000">survivor</text>
</g>
<!-- 1&#45;&gt;20 -->
<g id="edge28" class="edge">
<title>1&#45;&gt;20</title>
<path fill="none" stroke="#c0c0c0" stroke-width="2" d="M99.1615,-218.5431C101.9815,-217.6793 104.776,-216.8268 107.5,-216 157.2279,-200.907 214.7421,-183.9208 251.5865,-173.0992"/>
<polygon fill="#c0c0c0" stroke="#c0c0c0" stroke-width="2" points="252.7971,-176.3917 261.4067,-170.2172 250.8258,-169.6749 252.7971,-176.3917"/>
</g>
<!-- 2 -->
<g id="node3" class="node">
<title>2</title>
<path fill="none" stroke="#56d86b" stroke-width="2" d="M589,-108C589,-108 552,-108 552,-108 546,-108 540,-102 540,-96 540,-96 540,-84 540,-84 540,-78 546,-72 552,-72 552,-72 589,-72 589,-72 595,-72 601,-78 601,-84 601,-84 601,-96 601,-96 601,-102 595,-108 589,-108"/>
<text text-anchor="middle" x="570.5" y="-87.5" font-family="sans" font-size="10.00" fill="#000000">indexcov</text>
</g>
<!-- 2&#45;&gt;0 -->
<g id="edge2" class="edge">
<title>2&#45;&gt;0</title>
<path fill="none" stroke="#c0c0c0" stroke-width="2" d="M582.8648,-71.8314C588.4509,-63.6232 595.163,-53.7606 601.3072,-44.7323"/>
<polygon fill="#c0c0c0" stroke="#c0c0c0" stroke-width="2" points="604.236,-46.6496 606.9687,-36.4133 598.449,-42.7112 604.236,-46.6496"/>
</g>
<!-- 3 -->
<g id="node4" class="node">
<title>3</title>
<path fill="none" stroke="#5682d8" stroke-width="2" d="M204,-252C204,-252 129,-252 129,-252 123,-252 117,-246 117,-240 117,-240 117,-228 117,-228 117,-222 123,-216 129,-216 129,-216 204,-216 204,-216 210,-216 216,-222 216,-228 216,-228 216,-240 216,-240 216,-246 210,-252 204,-252"/>
<text text-anchor="middle" x="166.5" y="-237" font-family="sans" font-size="10.00" fill="#000000">manta</text>
<text text-anchor="middle" x="166.5" y="-226" font-family="sans" font-size="10.00" fill="#000000">comb: nc1t_nc1n</text>
</g>
<!-- 3&#45;&gt;0 -->
<g id="edge3" class="edge">
<title>3&#45;&gt;0</title>
<path fill="none" stroke="#c0c0c0" stroke-width="2" d="M161.8944,-215.9694C154.5517,-182.5433 144.6034,-110.8367 182.5,-72 210.28,-43.5309 481.7492,-25.6595 582.2942,-19.9717"/>
<polygon fill="#c0c0c0" stroke="#c0c0c0" stroke-width="2" points="582.5186,-23.4647 592.3083,-19.4137 582.129,-16.4756 582.5186,-23.4647"/>
</g>
<!-- 3&#45;&gt;20 -->
<g id="edge29" class="edge">
<title>3&#45;&gt;20</title>
<path fill="none" stroke="#c0c0c0" stroke-width="2" d="M197.5381,-215.8314C214.2647,-206.0402 235.0132,-193.8947 252.5665,-183.6196"/>
<polygon fill="#c0c0c0" stroke="#c0c0c0" stroke-width="2" points="254.5542,-186.5117 261.4162,-178.4393 251.0179,-180.4706 254.5542,-186.5117"/>
</g>
<!-- 4 -->
<g id="node5" class="node">
<title>4</title>
<path fill="none" stroke="#97d856" stroke-width="2" d="M706,-108C706,-108 631,-108 631,-108 625,-108 619,-102 619,-96 619,-96 619,-84 619,-84 619,-78 625,-72 631,-72 631,-72 706,-72 706,-72 712,-72 718,-78 718,-84 718,-84 718,-96 718,-96 718,-102 712,-108 706,-108"/>
<text text-anchor="middle" x="668.5" y="-93" font-family="sans" font-size="10.00" fill="#000000">facets</text>
<text text-anchor="middle" x="668.5" y="-82" font-family="sans" font-size="10.00" fill="#000000">comb: nc1t_nc1n</text>
</g>
<!-- 4&#45;&gt;0 -->
<g id="edge4" class="edge">
<title>4&#45;&gt;0</title>
<path fill="none" stroke="#c0c0c0" stroke-width="2" d="M656.1352,-71.8314C650.5491,-63.6232 643.837,-53.7606 637.6928,-44.7323"/>
<polygon fill="#c0c0c0" stroke="#c0c0c0" stroke-width="2" points="640.551,-42.7112 632.0313,-36.4133 634.764,-46.6496 640.551,-42.7112"/>
</g>
<!-- 5 -->
<g id="node6" class="node">
<title>5</title>
<path fill="none" stroke="#56a9d8" stroke-width="2" d="M823,-108C823,-108 748,-108 748,-108 742,-108 736,-102 736,-96 736,-96 736,-84 736,-84 736,-78 742,-72 748,-72 748,-72 823,-72 823,-72 829,-72 835,-78 835,-84 835,-84 835,-96 835,-96 835,-102 829,-108 823,-108"/>
<text text-anchor="middle" x="785.5" y="-93" font-family="sans" font-size="10.00" fill="#000000">ancestry</text>
<text text-anchor="middle" x="785.5" y="-82" font-family="sans" font-size="10.00" fill="#000000">comb: nc1t_nc1n</text>
</g>
<!-- 5&#45;&gt;0 -->
<g id="edge5" class="edge">
<title>5&#45;&gt;0</title>
<path fill="none" stroke="#c0c0c0" stroke-width="2" d="M743.6112,-71.8314C716.6985,-60.1584 682.0708,-45.1391 656.2331,-33.9324"/>
<polygon fill="#c0c0c0" stroke="#c0c0c0" stroke-width="2" points="657.3622,-30.6072 646.7953,-29.8389 654.5768,-37.0291 657.3622,-30.6072"/>
</g>
<!-- 6 -->
<g id="node7" class="node">
<title>6</title>
<path fill="none" stroke="#56c1d8" stroke-width="2" d="M931,-180C931,-180 856,-180 856,-180 850,-180 844,-174 844,-168 844,-168 844,-156 844,-156 844,-150 850,-144 856,-144 856,-144 931,-144 931,-144 937,-144 943,-150 943,-156 943,-156 943,-168 943,-168 943,-174 937,-180 931,-180"/>
<text text-anchor="middle" x="893.5" y="-165" font-family="sans" font-size="10.00" fill="#000000">freec</text>
<text text-anchor="middle" x="893.5" y="-154" font-family="sans" font-size="10.00" fill="#000000">comb: nc1t_nc1n</text>
</g>
<!-- 6&#45;&gt;0 -->
<g id="edge6" class="edge">
<title>6&#45;&gt;0</title>
<path fill="none" stroke="#c0c0c0" stroke-width="2" d="M888.3108,-143.8504C881.4667,-123.2559 867.4032,-90.1762 843.5,-72 814.408,-49.8783 712.7268,-31.8251 656.9007,-23.3027"/>
<polygon fill="#c0c0c0" stroke="#c0c0c0" stroke-width="2" points="657.1184,-19.7963 646.71,-21.7751 656.0806,-26.7189 657.1184,-19.7963"/>
</g>
<!-- 9 -->
<g id="node10" class="node">
<title>9</title>
<path fill="none" stroke="#80d856" stroke-width="2" d="M943,-108C943,-108 904,-108 904,-108 898,-108 892,-102 892,-96 892,-96 892,-84 892,-84 892,-78 898,-72 904,-72 904,-72 943,-72 943,-72 949,-72 955,-78 955,-84 955,-84 955,-96 955,-96 955,-102 949,-108 943,-108"/>
<text text-anchor="middle" x="923.5" y="-87.5" font-family="sans" font-size="10.00" fill="#000000">sequenza</text>
</g>
<!-- 6&#45;&gt;9 -->
<g id="edge22" class="edge">
<title>6&#45;&gt;9</title>
<path fill="none" stroke="#c0c0c0" stroke-width="2" d="M901.0703,-143.8314C904.3493,-135.9617 908.262,-126.5712 911.8945,-117.8533"/>
<polygon fill="#c0c0c0" stroke="#c0c0c0" stroke-width="2" points="915.2124,-118.9902 915.8278,-108.4133 908.7508,-116.2979 915.2124,-118.9902"/>
</g>
<!-- 7 -->
<g id="node8" class="node">
<title>7</title>
<path fill="none" stroke="#56d8a9" stroke-width="2" d="M1060,-108C1060,-108 985,-108 985,-108 979,-108 973,-102 973,-96 973,-96 973,-84 973,-84 973,-78 979,-72 985,-72 985,-72 1060,-72 1060,-72 1066,-72 1072,-78 1072,-84 1072,-84 1072,-96 1072,-96 1072,-102 1066,-108 1060,-108"/>
<text text-anchor="middle" x="1022.5" y="-93" font-family="sans" font-size="10.00" fill="#000000">melt_t</text>
<text text-anchor="middle" x="1022.5" y="-82" font-family="sans" font-size="10.00" fill="#000000">comb: nc1t_nc1n</text>
</g>
<!-- 7&#45;&gt;0 -->
<g id="edge7" class="edge">
<title>7&#45;&gt;0</title>
<path fill="none" stroke="#c0c0c0" stroke-width="2" d="M972.7393,-74.2815C969.6249,-73.4647 966.5267,-72.6956 963.5,-72 853.223,-46.6546 720.3112,-29.5047 656.8134,-22.115"/>
<polygon fill="#c0c0c0" stroke="#c0c0c0" stroke-width="2" points="656.8421,-18.5953 646.5078,-20.9308 656.0429,-25.5496 656.8421,-18.5953"/>
</g>
<!-- 8 -->
<g id="node9" class="node">
<title>8</title>
<path fill="none" stroke="#569ad8" stroke-width="2" d="M1187,-108C1187,-108 1102,-108 1102,-108 1096,-108 1090,-102 1090,-96 1090,-96 1090,-84 1090,-84 1090,-78 1096,-72 1102,-72 1102,-72 1187,-72 1187,-72 1193,-72 1199,-78 1199,-84 1199,-84 1199,-96 1199,-96 1199,-102 1193,-108 1187,-108"/>
<text text-anchor="middle" x="1144.5" y="-87.5" font-family="sans" font-size="10.00" fill="#000000">damage_estimator</text>
</g>
<!-- 8&#45;&gt;0 -->
<g id="edge8" class="edge">
<title>8&#45;&gt;0</title>
<path fill="none" stroke="#c0c0c0" stroke-width="2" d="M1089.8243,-74.0109C1086.6813,-73.2827 1083.5571,-72.605 1080.5,-72 924.9748,-41.2198 736.2131,-25.8559 657.1635,-20.3927"/>
<polygon fill="#c0c0c0" stroke="#c0c0c0" stroke-width="2" points="656.9661,-16.8714 646.7522,-19.687 656.4926,-23.8554 656.9661,-16.8714"/>
</g>
<!-- 9&#45;&gt;0 -->
<g id="edge9" class="edge">
<title>9&#45;&gt;0</title>
<path fill="none" stroke="#c0c0c0" stroke-width="2" d="M891.5677,-76.7188C886.8924,-75.0046 882.1024,-73.3717 877.5,-72 800.3213,-48.9978 707.3318,-32.1021 656.7408,-23.7873"/>
<polygon fill="#c0c0c0" stroke="#c0c0c0" stroke-width="2" points="657.0411,-20.2904 646.6098,-22.1442 655.9204,-27.2001 657.0411,-20.2904"/>
</g>
<!-- 10 -->
<g id="node11" class="node">
<title>10</title>
<path fill="none" stroke="#d8ac56" stroke-width="2" d="M1304,-108C1304,-108 1229,-108 1229,-108 1223,-108 1217,-102 1217,-96 1217,-96 1217,-84 1217,-84 1217,-78 1223,-72 1229,-72 1229,-72 1304,-72 1304,-72 1310,-72 1316,-78 1316,-84 1316,-84 1316,-96 1316,-96 1316,-102 1310,-108 1304,-108"/>
<text text-anchor="middle" x="1266.5" y="-93" font-family="sans" font-size="10.00" fill="#000000">msisensor</text>
<text text-anchor="middle" x="1266.5" y="-82" font-family="sans" font-size="10.00" fill="#000000">comb: nc1t_nc1n</text>
</g>
<!-- 10&#45;&gt;0 -->
<g id="edge10" class="edge">
<title>10&#45;&gt;0</title>
<path fill="none" stroke="#c0c0c0" stroke-width="2" d="M1216.684,-73.8132C1213.9294,-73.1458 1211.1887,-72.5343 1208.5,-72 1002.9051,-31.1424 750.6825,-21.1088 656.9183,-18.7202"/>
<polygon fill="#c0c0c0" stroke="#c0c0c0" stroke-width="2" points="656.8765,-15.2183 646.7952,-18.4768 656.7081,-22.2163 656.8765,-15.2183"/>
</g>
<!-- 11 -->
<g id="node12" class="node">
<title>11</title>
<path fill="none" stroke="#d89556" stroke-width="2" d="M1421,-108C1421,-108 1346,-108 1346,-108 1340,-108 1334,-102 1334,-96 1334,-96 1334,-84 1334,-84 1334,-78 1340,-72 1346,-72 1346,-72 1421,-72 1421,-72 1427,-72 1433,-78 1433,-84 1433,-84 1433,-96 1433,-96 1433,-102 1427,-108 1421,-108"/>
<text text-anchor="middle" x="1383.5" y="-93" font-family="sans" font-size="10.00" fill="#000000">qualimap</text>
<text text-anchor="middle" x="1383.5" y="-82" font-family="sans" font-size="10.00" fill="#000000">comb: nc1t_nc1n</text>
</g>
<!-- 11&#45;&gt;0 -->
<g id="edge11" class="edge">
<title>11&#45;&gt;0</title>
<path fill="none" stroke="#c0c0c0" stroke-width="2" d="M1333.6936,-73.764C1330.9366,-73.1093 1328.1926,-72.514 1325.5,-72 1195.4133,-47.1666 784.1615,-25.8818 657.2031,-19.7646"/>
<polygon fill="#c0c0c0" stroke="#c0c0c0" stroke-width="2" points="656.9966,-16.2508 646.8407,-19.2687 656.6619,-23.2428 656.9966,-16.2508"/>
</g>
<!-- 12 -->
<g id="node13" class="node">
<title>12</title>
<path fill="none" stroke="#d86e56" stroke-width="2" d="M359.5,-108C359.5,-108 329.5,-108 329.5,-108 323.5,-108 317.5,-102 317.5,-96 317.5,-96 317.5,-84 317.5,-84 317.5,-78 323.5,-72 329.5,-72 329.5,-72 359.5,-72 359.5,-72 365.5,-72 371.5,-78 371.5,-84 371.5,-84 371.5,-96 371.5,-96 371.5,-102 365.5,-108 359.5,-108"/>
<text text-anchor="middle" x="344.5" y="-87.5" font-family="sans" font-size="10.00" fill="#000000">svviz</text>
</g>
<!-- 12&#45;&gt;0 -->
<g id="edge12" class="edge">
<title>12&#45;&gt;0</title>
<path fill="none" stroke="#c0c0c0" stroke-width="2" d="M371.7179,-75.5394C374.6407,-74.244 377.6044,-73.0338 380.5,-72 449.7761,-47.2659 534.5116,-31.3079 582.213,-23.5553"/>
<polygon fill="#c0c0c0" stroke="#c0c0c0" stroke-width="2" points="583.0526,-26.9658 592.3779,-21.9369 581.9519,-20.0529 583.0526,-26.9658"/>
</g>
<!-- 13 -->
<g id="node14" class="node">
<title>13</title>
<path fill="none" stroke="#c6d856" stroke-width="2" d="M321,-252C321,-252 246,-252 246,-252 240,-252 234,-246 234,-240 234,-240 234,-228 234,-228 234,-222 240,-216 246,-216 246,-216 321,-216 321,-216 327,-216 333,-222 333,-228 333,-228 333,-240 333,-240 333,-246 327,-252 321,-252"/>
<text text-anchor="middle" x="283.5" y="-237" font-family="sans" font-size="10.00" fill="#000000">lumpy</text>
<text text-anchor="middle" x="283.5" y="-226" font-family="sans" font-size="10.00" fill="#000000">comb: nc1t_nc1n</text>
</g>
<!-- 13&#45;&gt;0 -->
<g id="edge13" class="edge">
<title>13&#45;&gt;0</title>
<path fill="none" stroke="#c0c0c0" stroke-width="2" d="M260.9322,-215.7796C224.0732,-183.8889 158.8451,-117.0662 198.5,-72 223.7156,-43.3435 483.9059,-25.6999 582.1868,-20.0147"/>
<polygon fill="#c0c0c0" stroke="#c0c0c0" stroke-width="2" points="582.4811,-23.5037 592.266,-19.4409 582.0832,-16.515 582.4811,-23.5037"/>
</g>
<!-- 13&#45;&gt;20 -->
<g id="edge31" class="edge">
<title>13&#45;&gt;20</title>
<path fill="none" stroke="#c0c0c0" stroke-width="2" d="M285.0141,-215.8314C285.6558,-208.131 286.4188,-198.9743 287.1319,-190.4166"/>
<polygon fill="#c0c0c0" stroke="#c0c0c0" stroke-width="2" points="290.6229,-190.6694 287.9656,-180.4133 283.6471,-190.088 290.6229,-190.6694"/>
</g>
<!-- 14 -->
<g id="node15" class="node">
<title>14</title>
<path fill="none" stroke="#566bd8" stroke-width="2" d="M438,-252C438,-252 363,-252 363,-252 357,-252 351,-246 351,-240 351,-240 351,-228 351,-228 351,-222 357,-216 363,-216 363,-216 438,-216 438,-216 444,-216 450,-222 450,-228 450,-228 450,-240 450,-240 450,-246 444,-252 438,-252"/>
<text text-anchor="middle" x="400.5" y="-237" font-family="sans" font-size="10.00" fill="#000000">svaba</text>
<text text-anchor="middle" x="400.5" y="-226" font-family="sans" font-size="10.00" fill="#000000">comb: nc1t_nc1n</text>
</g>
<!-- 14&#45;&gt;0 -->
<g id="edge14" class="edge">
<title>14&#45;&gt;0</title>
<path fill="none" stroke="#c0c0c0" stroke-width="2" d="M409.2268,-215.758C425.5478,-183.2394 463.5151,-114.6724 512.5,-72 533.1374,-54.0221 560.8154,-40.2626 582.8507,-31.1328"/>
<polygon fill="#c0c0c0" stroke="#c0c0c0" stroke-width="2" points="584.2361,-34.3483 592.2214,-27.3851 581.6367,-27.8488 584.2361,-34.3483"/>
</g>
<!-- 14&#45;&gt;20 -->
<g id="edge30" class="edge">
<title>14&#45;&gt;20</title>
<path fill="none" stroke="#c0c0c0" stroke-width="2" d="M372.49,-215.8314C358.4239,-206.7074 341.206,-195.539 326.1067,-185.7449"/>
<polygon fill="#c0c0c0" stroke="#c0c0c0" stroke-width="2" points="327.7953,-182.6684 317.501,-180.1628 323.986,-188.5412 327.7953,-182.6684"/>
</g>
<!-- 15 -->
<g id="node16" class="node">
<title>15</title>
<path fill="none" stroke="#56d89a" stroke-width="2" d="M1498,-108C1498,-108 1463,-108 1463,-108 1457,-108 1451,-102 1451,-96 1451,-96 1451,-84 1451,-84 1451,-78 1457,-72 1463,-72 1463,-72 1498,-72 1498,-72 1504,-72 1510,-78 1510,-84 1510,-84 1510,-96 1510,-96 1510,-102 1504,-108 1498,-108"/>
<text text-anchor="middle" x="1480.5" y="-87.5" font-family="sans" font-size="10.00" fill="#000000">conpair2</text>
</g>
<!-- 15&#45;&gt;0 -->
<g id="edge15" class="edge">
<title>15&#45;&gt;0</title>
<path fill="none" stroke="#c0c0c0" stroke-width="2" d="M1450.6044,-74.5882C1447.9102,-73.5835 1445.185,-72.6969 1442.5,-72 1290.8752,-32.6457 797.241,-21.1162 656.9795,-18.5964"/>
<polygon fill="#c0c0c0" stroke="#c0c0c0" stroke-width="2" points="656.8087,-15.093 646.749,-18.4175 656.6863,-22.0919 656.8087,-15.093"/>
</g>
<!-- 16 -->
<g id="node17" class="node">
<title>16</title>
<path fill="none" stroke="#d8c356" stroke-width="2" d="M433.5,-108C433.5,-108 401.5,-108 401.5,-108 395.5,-108 389.5,-102 389.5,-96 389.5,-96 389.5,-84 389.5,-84 389.5,-78 395.5,-72 401.5,-72 401.5,-72 433.5,-72 433.5,-72 439.5,-72 445.5,-78 445.5,-84 445.5,-84 445.5,-96 445.5,-96 445.5,-102 439.5,-108 433.5,-108"/>
<text text-anchor="middle" x="417.5" y="-87.5" font-family="sans" font-size="10.00" fill="#000000">annotsv</text>
</g>
<!-- 16&#45;&gt;0 -->
<g id="edge16" class="edge">
<title>16&#45;&gt;0</title>
<path fill="none" stroke="#c0c0c0" stroke-width="2" d="M445.8416,-77.4922C450.385,-75.5917 455.054,-73.6999 459.5,-72 501.316,-56.0119 550.1751,-39.8839 582.7964,-29.4715"/>
<polygon fill="#c0c0c0" stroke="#c0c0c0" stroke-width="2" points="583.9018,-32.7928 592.3732,-26.4301 581.7829,-26.1212 583.9018,-32.7928"/>
</g>
<!-- 17 -->
<g id="node18" class="node">
<title>17</title>
<path fill="none" stroke="#d85656" stroke-width="2" d="M1615,-108C1615,-108 1540,-108 1540,-108 1534,-108 1528,-102 1528,-96 1528,-96 1528,-84 1528,-84 1528,-78 1534,-72 1540,-72 1540,-72 1615,-72 1615,-72 1621,-72 1627,-78 1627,-84 1627,-84 1627,-96 1627,-96 1627,-102 1621,-108 1615,-108"/>
<text text-anchor="middle" x="1577.5" y="-93" font-family="sans" font-size="10.00" fill="#000000">melt_n</text>
<text text-anchor="middle" x="1577.5" y="-82" font-family="sans" font-size="10.00" fill="#000000">comb: nc1t_nc1n</text>
</g>
<!-- 17&#45;&gt;0 -->
<g id="edge17" class="edge">
<title>17&#45;&gt;0</title>
<path fill="none" stroke="#c0c0c0" stroke-width="2" d="M1527.7036,-73.7105C1524.944,-73.0696 1522.1967,-72.4919 1519.5,-72 1433.7912,-56.366 816.4713,-27.0835 657.0118,-19.7161"/>
<polygon fill="#c0c0c0" stroke="#c0c0c0" stroke-width="2" points="656.9078,-16.2076 646.7572,-19.2433 656.5854,-23.2002 656.9078,-16.2076"/>
</g>
<!-- 18 -->
<g id="node19" class="node">
<title>18</title>
<path fill="none" stroke="#56d882" stroke-width="2" d="M555,-252C555,-252 480,-252 480,-252 474,-252 468,-246 468,-240 468,-240 468,-228 468,-228 468,-222 474,-216 480,-216 480,-216 555,-216 555,-216 561,-216 567,-222 567,-228 567,-228 567,-240 567,-240 567,-246 561,-252 555,-252"/>
<text text-anchor="middle" x="517.5" y="-237" font-family="sans" font-size="10.00" fill="#000000">whamg</text>
<text text-anchor="middle" x="517.5" y="-226" font-family="sans" font-size="10.00" fill="#000000">comb: nc1t_nc1n</text>
</g>
<!-- 18&#45;&gt;0 -->
<g id="edge18" class="edge">
<title>18&#45;&gt;0</title>
<path fill="none" stroke="#c0c0c0" stroke-width="2" d="M513.9518,-215.8452C508.7587,-184.0562 502.5015,-117.3857 530.5,-72 542.4328,-52.657 564.1181,-39.2872 583.0952,-30.6897"/>
<polygon fill="#c0c0c0" stroke="#c0c0c0" stroke-width="2" points="584.5816,-33.8612 592.4217,-26.735 581.8489,-27.4166 584.5816,-33.8612"/>
</g>
<!-- 18&#45;&gt;20 -->
<g id="edge27" class="edge">
<title>18&#45;&gt;20</title>
<path fill="none" stroke="#c0c0c0" stroke-width="2" d="M467.7462,-218.2883C425.5279,-204.9562 365.8553,-186.1122 327.4165,-173.9736"/>
<polygon fill="#c0c0c0" stroke="#c0c0c0" stroke-width="2" points="328.2378,-170.5627 317.6479,-170.8888 326.1298,-177.2377 328.2378,-170.5627"/>
</g>
<!-- 19 -->
<g id="node20" class="node">
<title>19</title>
<path fill="none" stroke="#d6d856" stroke-width="2" d="M249.5,-108C249.5,-108 219.5,-108 219.5,-108 213.5,-108 207.5,-102 207.5,-96 207.5,-96 207.5,-84 207.5,-84 207.5,-78 213.5,-72 219.5,-72 219.5,-72 249.5,-72 249.5,-72 255.5,-72 261.5,-78 261.5,-84 261.5,-84 261.5,-96 261.5,-96 261.5,-102 255.5,-108 249.5,-108"/>
<text text-anchor="middle" x="234.5" y="-87.5" font-family="sans" font-size="10.00" fill="#000000">mavis</text>
</g>
<!-- 19&#45;&gt;0 -->
<g id="edge19" class="edge">
<title>19&#45;&gt;0</title>
<path fill="none" stroke="#c0c0c0" stroke-width="2" d="M261.9269,-76.8066C266.3931,-74.9948 271.0235,-73.31 275.5,-72 384.3217,-40.1536 518.3381,-25.9858 582.2184,-20.6866"/>
<polygon fill="#c0c0c0" stroke="#c0c0c0" stroke-width="2" points="582.5313,-24.1728 592.2185,-19.8825 581.9702,-17.1953 582.5313,-24.1728"/>
</g>
<!-- 20&#45;&gt;0 -->
<g id="edge20" class="edge">
<title>20&#45;&gt;0</title>
<path fill="none" stroke="#c0c0c0" stroke-width="2" d="M287.8324,-143.643C287.0677,-123.1727 289.3046,-90.514 308.5,-72 347.0348,-34.8331 507.9173,-22.9438 581.9369,-19.3974"/>
<polygon fill="#c0c0c0" stroke="#c0c0c0" stroke-width="2" points="582.3712,-22.8814 592.2027,-18.9327 582.0546,-15.8886 582.3712,-22.8814"/>
</g>
<!-- 20&#45;&gt;12 -->
<g id="edge23" class="edge">
<title>20&#45;&gt;12</title>
<path fill="none" stroke="#c0c0c0" stroke-width="2" d="M303.3788,-143.8314C309.7136,-135.5386 317.3384,-125.557 324.2926,-116.4533"/>
<polygon fill="#c0c0c0" stroke="#c0c0c0" stroke-width="2" points="327.1452,-118.4847 330.4343,-108.4133 321.5825,-114.2353 327.1452,-118.4847"/>
</g>
<!-- 20&#45;&gt;16 -->
<g id="edge25" class="edge">
<title>20&#45;&gt;16</title>
<path fill="none" stroke="#c0c0c0" stroke-width="2" d="M317.5901,-146.1993C336.0973,-135.789 360.5278,-122.0469 380.5978,-110.7575"/>
<polygon fill="#c0c0c0" stroke="#c0c0c0" stroke-width="2" points="382.4755,-113.717 389.4754,-105.7638 379.0437,-107.616 382.4755,-113.717"/>
</g>
<!-- 20&#45;&gt;19 -->
<g id="edge26" class="edge">
<title>20&#45;&gt;19</title>
<path fill="none" stroke="#c0c0c0" stroke-width="2" d="M275.6212,-143.8314C269.2864,-135.5386 261.6616,-125.557 254.7074,-116.4533"/>
<polygon fill="#c0c0c0" stroke="#c0c0c0" stroke-width="2" points="257.4175,-114.2353 248.5657,-108.4133 251.8548,-118.4847 257.4175,-114.2353"/>
</g>
<!-- 21 -->
<g id="node22" class="node">
<title>21</title>
<path fill="none" stroke="#59d856" stroke-width="2" d="M1167.5,-180C1167.5,-180 1121.5,-180 1121.5,-180 1115.5,-180 1109.5,-174 1109.5,-168 1109.5,-168 1109.5,-156 1109.5,-156 1109.5,-150 1115.5,-144 1121.5,-144 1121.5,-144 1167.5,-144 1167.5,-144 1173.5,-144 1179.5,-150 1179.5,-156 1179.5,-156 1179.5,-168 1179.5,-168 1179.5,-174 1173.5,-180 1167.5,-180"/>
<text text-anchor="middle" x="1144.5" y="-159.5" font-family="sans" font-size="10.00" fill="#000000">split_reads</text>
</g>
<!-- 21&#45;&gt;8 -->
<g id="edge21" class="edge">
<title>21&#45;&gt;8</title>
<path fill="none" stroke="#c0c0c0" stroke-width="2" d="M1144.5,-143.8314C1144.5,-136.131 1144.5,-126.9743 1144.5,-118.4166"/>
<polygon fill="#c0c0c0" stroke="#c0c0c0" stroke-width="2" points="1148.0001,-118.4132 1144.5,-108.4133 1141.0001,-118.4133 1148.0001,-118.4132"/>
</g>
<!-- 22 -->
<g id="node23" class="node">
<title>22</title>
<path fill="none" stroke="#68d856" stroke-width="2" d="M1518,-180C1518,-180 1443,-180 1443,-180 1437,-180 1431,-174 1431,-168 1431,-168 1431,-156 1431,-156 1431,-150 1437,-144 1443,-144 1443,-144 1518,-144 1518,-144 1524,-144 1530,-150 1530,-156 1530,-156 1530,-168 1530,-168 1530,-174 1524,-180 1518,-180"/>
<text text-anchor="middle" x="1480.5" y="-165" font-family="sans" font-size="10.00" fill="#000000">conpair1</text>
<text text-anchor="middle" x="1480.5" y="-154" font-family="sans" font-size="10.00" fill="#000000">comb: nc1t_nc1n</text>
</g>
<!-- 22&#45;&gt;15 -->
<g id="edge24" class="edge">
<title>22&#45;&gt;15</title>
<path fill="none" stroke="#c0c0c0" stroke-width="2" d="M1480.5,-143.8314C1480.5,-136.131 1480.5,-126.9743 1480.5,-118.4166"/>
<polygon fill="#c0c0c0" stroke="#c0c0c0" stroke-width="2" points="1484.0001,-118.4132 1480.5,-108.4133 1477.0001,-118.4133 1484.0001,-118.4132"/>
</g>
<!-- 23 -->
<g id="node24" class="node">
<title>23</title>
<path fill="none" stroke="#d88556" stroke-width="2" d="M1182,-252C1182,-252 1107,-252 1107,-252 1101,-252 1095,-246 1095,-240 1095,-240 1095,-228 1095,-228 1095,-222 1101,-216 1107,-216 1107,-216 1182,-216 1182,-216 1188,-216 1194,-222 1194,-228 1194,-228 1194,-240 1194,-240 1194,-246 1188,-252 1182,-252"/>
<text text-anchor="middle" x="1144.5" y="-237" font-family="sans" font-size="10.00" fill="#000000">bbtools</text>
<text text-anchor="middle" x="1144.5" y="-226" font-family="sans" font-size="10.00" fill="#000000">comb: nc1t_nc1n</text>
</g>
<!-- 23&#45;&gt;21 -->
<g id="edge32" class="edge">
<title>23&#45;&gt;21</title>
<path fill="none" stroke="#c0c0c0" stroke-width="2" d="M1144.5,-215.8314C1144.5,-208.131 1144.5,-198.9743 1144.5,-190.4166"/>
<polygon fill="#c0c0c0" stroke="#c0c0c0" stroke-width="2" points="1148.0001,-190.4132 1144.5,-180.4133 1141.0001,-190.4133 1148.0001,-190.4132"/>
</g>
</g>
</svg>
